<svg id="Layer_1" data-name="Layer 1" xmlns="http://www.w3.org/2000/svg" viewBox="0 0 688.52 178.18"><defs><style>.cls-1{fill:#171a21;}.cls-2{fill:none;stroke:#584ed2;stroke-linecap:square;stroke-linejoin:round;stroke-width:5px;}</style></defs><path class="cls-1" d="M198,52h53.82V63.86H232.28v61.49H217.56V63.86H198Z"/><path class="cls-1" d="M288,126.29c-16.92,0-29.22-11.77-29.22-30.06s12-30,29.22-30c16.82,0,28.69,11.45,28.69,28.79a33.86,33.86,0,0,1-.42,5.68H273.69c.73,8.62,6.62,13.45,14,13.45,6.3,0,9.77-3.15,11.66-7H315.2C312.05,117.78,302.38,126.29,288,126.29ZM273.79,90.77h27.64c-.21-7.67-6.3-12.51-13.87-12.51C280.52,78.26,275,82.78,273.79,90.77Z"/><path class="cls-1" d="M347.57,107.27,337,125.35H321.19l19-29.22L321,67.12h16.61l11.87,18,10.72-18H376l-19.13,29,19.34,29.22H359.55Z"/><path class="cls-1" d="M386.46,79.21h-6.94V67.12h6.94V52.72h14.82v14.4h13V79.21h-13v28.17c0,3.88,1.57,5.57,6.2,5.57h6.83v12.4h-9.25c-11.14,0-18.6-4.73-18.6-18.08Z"/><path class="cls-1" d="M492.5,63.86H464.65v18.4h24.7V93.92h-24.7v19.45H492.5v12H449.94V51.88H492.5Z"/><path class="cls-1" d="M528.66,66.18c9.35,0,15.76,4.41,19.23,9.24v-8.3h14.82v58.23H547.89v-8.52c-3.47,5-10.09,9.46-19.34,9.46-14.71,0-26.48-12.08-26.48-30.27S513.84,66.18,528.66,66.18Zm3.78,12.92C524.56,79.1,517.1,85,517.1,96s7.46,17.35,15.34,17.35c8.09,0,15.45-6.1,15.45-17.14S540.53,79.1,532.44,79.1Z"/><path class="cls-1" d="M599.39,126.29c-14.61,0-24.8-8.51-25.43-19.34h14.82c.52,4.42,4.62,7.78,10.51,7.78s8.93-2.63,8.93-6c0-10.4-32.9-3.78-32.9-25.12,0-9.67,8.62-17.44,23-17.44,14.08,0,22.6,7.67,23.44,19.23H607.69c-.42-4.52-4-7.57-9.77-7.57-5.47,0-8.3,2.21-8.3,5.57,0,10.62,32.26,4,32.68,25.33C622.3,118.73,613.58,126.29,599.39,126.29Z"/><path class="cls-1" d="M659.82,126.29c-16.92,0-29.21-11.77-29.21-30.06s12-30,29.21-30c16.82,0,28.7,11.45,28.7,28.79a35,35,0,0,1-.42,5.68H645.53c.74,8.62,6.62,13.45,14,13.45,6.31,0,9.77-3.15,11.67-7h15.87C683.89,117.78,674.22,126.29,659.82,126.29ZM645.64,90.77h27.64c-.21-7.67-6.31-12.51-13.88-12.51C652.36,78.26,646.79,82.78,645.64,90.77Z"/><polygon class="cls-2" points="1.5 29.06 20.8 35.93 148.97 8.04 130.2 1.5 1.5 29.06"/><polygon class="cls-2" points="1.5 29.06 1.5 66.21 20.8 73 20.8 35.93 1.5 29.06"/><polygon class="cls-2" points="20.8 73 148.97 43.13 148.97 8.04 20.8 35.93 20.8 73"/><polygon class="cls-2" points="48.65 66.49 48.65 169.88 67.96 176.68 67.96 62.42 48.65 66.49"/><polygon class="cls-2" points="67.96 62.42 101.96 54.09 101.96 168.65 67.96 176.68 67.96 62.42"/><polygon class="cls-2" points="101.96 74.25 130.62 68.22 149.28 74.95 101.96 85.05 101.96 74.25"/><polygon class="cls-2" points="101.96 134.6 101.96 145.18 149.28 134.7 130.83 128.27 101.96 134.6"/><polygon class="cls-2" points="149.28 74.95 149.28 99.87 101.96 112.03 101.96 85.05 149.28 74.95"/><polygon class="cls-2" points="149.28 134.7 149.28 157.2 101.96 168.65 101.96 145.35 149.28 134.7"/></svg>