<svg id="Layer_1" data-name="Layer 1" xmlns="http://www.w3.org/2000/svg" viewBox="0 0 152.78 180.18"><defs><style>.cls-1{fill:none;stroke:#584ed2;stroke-linecap:square;stroke-linejoin:round;stroke-width:5px;}</style></defs><polygon class="cls-1" points="2.5 30.06 21.8 36.93 149.97 9.04 131.2 2.5 2.5 30.06"/><polygon class="cls-1" points="2.5 30.06 2.5 67.21 21.8 74 21.8 36.93 2.5 30.06"/><polygon class="cls-1" points="21.8 74 149.97 44.13 149.97 9.04 21.8 36.93 21.8 74"/><polygon class="cls-1" points="49.65 67.49 49.65 170.88 68.96 177.68 68.96 63.42 49.65 67.49"/><polygon class="cls-1" points="68.96 63.42 102.96 55.09 102.96 169.65 68.96 177.68 68.96 63.42"/><polygon class="cls-1" points="102.96 75.25 131.62 69.22 150.28 75.95 102.96 86.05 102.96 75.25"/><polygon class="cls-1" points="102.96 135.6 102.96 146.18 150.28 135.7 131.83 129.27 102.96 135.6"/><polygon class="cls-1" points="150.28 75.95 150.28 100.87 102.96 113.03 102.96 86.05 150.28 75.95"/><polygon class="cls-1" points="150.28 135.7 150.28 158.2 102.96 169.65 102.96 146.35 150.28 135.7"/></svg>